<?xml version="1.0" encoding="UTF-8"?>
<svg width="520px" height="520px" viewBox="0 0 520 520" version="1.1" xmlns="http://www.w3.org/2000/svg" xmlns:xlink="http://www.w3.org/1999/xlink">
    <!-- Generator: Sketch 59.1 (86144) - https://sketch.com -->
    <title>Solution-leadership-2</title>
    <desc>Created with Sketch.</desc>
    <g id="Solution-leadership-2" stroke="none" stroke-width="1" fill="none" fill-rule="evenodd">
        <g id="Group-4" transform="translate(39.000000, 79.000000)">
            <path d="M139.001832,346.496373 C32.8627626,343.058383 -10.1762013,301.249632 2.00481396,232.113862 C14.1858292,162.978092 77.3842052,63.4947177 162.337052,28.189156 C247.289898,-7.11640574 339.555371,10.0275704 392.545997,70.4722798 C445.536623,130.916989 446.757821,224.129341 394.498887,280.370709 C342.239953,336.612077 245.140901,349.934363 139.001832,346.496373 Z" id="Path-163" fill="#E9F2FF"></path>
            <g id="Group" transform="translate(114.000000, 0.000000)">
                <path d="M61.5761638,202.248909 C58.294425,209.218161 54.0862267,224.008775 48.9515691,246.62075 C43.8169114,269.232725 38.3514232,302.038361 32.5551043,345.037657 L79.1380336,346.194162 C84.7715462,314.565418 88.3256269,293.292887 89.8002755,282.376569 C89.8002755,293.209151 89.8002755,313.90608 89.8002755,344.467357 L134.358869,340.986402 C137.459217,281.692575 138.234304,245.406442 136.68413,232.128002 C135.133956,218.849562 132.572436,208.889864 128.99957,202.248909 L61.5761638,202.248909 Z" id="Path-2" fill="#69A3E9"></path>
                <path d="M57.4368447,210.049517 C59.0838443,197.599942 59.8206468,189.350372 59.6472522,185.30081 C58.7710355,164.837115 57.4368447,154.521839 57.4368447,147.983279 C57.4368447,139.503844 58.1736472,129.288476 59.6472522,117.337176 L26.8511919,91.6180101 C21.3556499,85.711663 17.2739158,78.758258 14.6059894,70.757795 C11.9380629,62.757332 8.98886443,52.25923 5.75839388,39.263489 C4.7748101,36.0096282 5.56275045,33.8625948 8.12221494,32.8223887 C11.9614117,31.2620796 13.892443,20.7804198 21.6069531,32.8223887 C29.3214631,44.8643576 32.5296355,52.6493947 37.3302767,62.7913075 C40.5307042,69.5525827 43.2441412,73.947193 45.4705877,75.9751383 L81.5791284,87.0764169 C110.912922,98.1161354 132.20401,108.203055 145.452391,117.337176 C158.700773,126.471298 171.203455,139.132838 182.960439,155.321796 C185.498835,152.883914 189.803807,150.437741 195.875356,147.983279 C201.946905,145.528817 210.276112,142.867541 220.862979,139.999453 L231.401551,149.937463 C208.561717,168.626964 192.41468,177.971714 182.960439,177.971714 C173.506199,177.971714 161.003516,170.421741 145.452391,155.321796 C140.107129,165.241821 136.409288,173.682533 134.358869,180.643932 C132.308451,187.605331 130.522018,195.366498 128.99957,203.927433 C113.42482,208.96617 99.190756,211.485539 86.2973779,211.485539 C73.4039997,211.485539 63.783822,211.006865 57.4368447,210.049517 Z" id="Path-147" fill="#2C1A29"></path>
                <path d="M102.472332,94.2007202 L101.356559,109.133246 C101.223714,113.38863 104.142688,116.776219 110.113482,119.296014 C116.084276,121.815809 121.112412,119.268567 125.197889,111.654289 L128.99957,83.5371339 L102.472332,94.2007202 Z" id="Path-150" fill="#E49C74"></path>
                <path d="M101.549503,103.804393 C105.777276,104.730867 109.245387,104.730867 111.953838,103.804393 C114.662288,102.877919 118.397569,99.8810574 123.15968,94.8138075 L102.115411,94.8138075 L101.549503,103.804393 Z" id="Path-151" fill="#000000"></path>
                <path d="M106.720166,58.3179916 C102.649275,60.9771561 100.094991,67.2250641 99.0573152,77.0617155 C99.2837829,94.0073222 103.258446,102.480126 110.981305,102.480126 C122.565594,102.480126 126.523027,93.8995952 130.394381,88.0371339 C131.683333,86.085251 134.832416,87.4119948 136.313327,81.9061192 C137.794237,76.4002437 134.550636,75.686454 131.683333,77.8479067 C132.727028,70.7162207 133.243561,62.7565787 127.751911,58.3179916 C119.278161,51.4691423 112.826502,54.3292449 106.720166,58.3179916 Z" id="Path-152" fill="#E49C74"></path>
                <polygon id="Path-169" fill="#AAB0CC" points="197.665657 119.117416 234.866878 166.351726 281.435601 161.472803 319 131.473588 317.861181 123.138556 275.050271 90.4966004 239.811883 115.682008 201.999513 112.15795"></polygon>
                <path d="M5.10475554,39.945753 C2.49815035,36.0528295 -2.89466539,25.4164643 1.94881961,19.8275522 C6.79230461,14.23864 12.1664753,9.70255218 15.4194688,12.1471129 C17.6658815,2.35161076 18.9526768,-3.13060681 21.7736076,2.10527185 C23.6542282,5.59585762 22.9503,10.7007844 19.6618231,17.4200522 C22.9503,21.5271443 23.6542282,25.3767154 21.7736076,28.9687656 C19.8929871,32.5608158 17.7749408,36.2198116 15.4194688,39.945753 C10.2807301,42.5410354 6.84249233,42.5410354 5.10475554,39.945753 Z" id="Path-170" fill="#E49C74"></path>
                <polygon id="Path-3" fill="#2F353E" points="239.811883 115.682008 275.050271 90.4966004 318.250275 123.075706 278.71045 155.654812"></polygon>
                <polyline id="Path-184" stroke="#58C4A0" stroke-width="2" stroke-linecap="round" stroke-linejoin="round" points="257.096971 115.682008 278.71045 116.485356 279.031079 125.98784 300.052766 125.840241 293.557797 131.473588"></polyline>
                <polygon id="Path-185" fill="#FFFFFF" points="201.999513 112.15795 239.8763 158.49275 279.031079 155.654812 239.811883 115.682008"></polygon>
                <line x1="293.557797" y1="121.014383" x2="300.052766" y2="125.840241" id="Path-186" stroke="#58C4A0" stroke-width="2" stroke-linecap="round" stroke-linejoin="round"></line>
                <rect id="Rectangle" stroke="#58C4A0" stroke-width="2" fill="#2F353E" x="276.170346" y="114.075314" width="4.80904523" height="4.82008368" rx="2.40452261"></rect>
                <rect id="Rectangle-Copy" stroke="#58C4A0" stroke-width="2" fill="#2F353E" x="276.626556" y="123.577798" width="4.80904523" height="4.82008368" rx="2.40452261"></rect>
                <path d="M110.113482,80.6877615 C108.998625,83.5970651 107.883767,86.1247848 106.76891,88.2709205 L110.113482,89.4288703" id="Path-187" stroke="#000000" stroke-linecap="round" stroke-linejoin="round"></path>
                <path d="M110.113482,94.8138075 C113.24366,95.4074268 115.403154,94.4375 116.591966,91.9040272" id="Path-188" stroke="#000000" stroke-linecap="round" stroke-linejoin="round"></path>
                <ellipse id="Oval" fill="#000000" cx="104.690783" cy="80.5057531" rx="1" ry="1.42468619"></ellipse>
                <ellipse id="Oval-Copy" fill="#000000" cx="115.790458" cy="82.0269351" rx="1" ry="1.42468619"></ellipse>
                <path d="M128.99957,56.5355649 C127.281469,52.1841004 123.740007,50.0083682 118.375183,50.0083682 C110.327948,50.0083682 95.6190324,54.1961297 95.6190324,62.000523 C95.6190324,67.2034519 96.9063495,70.7756276 99.4809837,72.7170502 C110.43492,69.6610879 116.732987,66.8844142 118.375183,64.3870293 C121.925044,71.8378661 126.361094,76.3248253 131.683333,77.8479067 C133.467024,73.8582981 134.358869,69.3713389 134.358869,64.3870293 C134.358869,59.4027197 132.572436,56.7855649 128.99957,56.5355649 Z" id="Path-180" fill="#814B2A"></path>
                <line x1="102.651791" y1="73.8208682" x2="106.76891" y2="75.9227309" id="Path-189" stroke="#000000" stroke-width="2" stroke-linecap="round" stroke-linejoin="round"></line>
                <line x1="114.873783" y1="76.9605126" x2="119.920991" y2="76.9605126" id="Path-190" stroke="#000000" stroke-width="2" stroke-linecap="round" stroke-linejoin="round"></line>
            </g>
            <g id="Group-2" transform="translate(266.000000, 110.000000)">
                <path d="M6.06434671,30.3318229 C-0.0315823155,18.7405289 -1.20562817,10.9511755 2.54220915,6.96376258 C8.16396513,0.982643247 18.5758556,-3.89817548 22.6904914,4.56815818 C23.8140588,6.88002666 26.4266803,10.2150387 26.6298233,13.5146333 C26.8250317,16.6853491 25.5119211,22.2910789 22.6904914,30.3318229 L6.06434671,30.3318229 Z" id="Path-181" fill="#E49C74"></path>
                <path d="M106.765768,67.3389423 L104.594963,72.2702886 L84.080234,83.4816473 L87.2948459,87.7001629 L85.3576641,91.3575147 C86.9309613,92.3239705 88.8833253,93.2066575 91.214756,94.0055756 C89.1335343,95.1596281 87.0232446,95.2576937 84.883887,94.2997723 C83.4423379,97.5580876 82.9836108,99.9974617 83.5077055,101.617895 C84.3908431,104.348442 85.922139,104.814865 88.9533141,106.156817 C86.7761313,110.318917 85.1517713,114.86343 84.080234,119.790357 L110.416882,126.082718 L123.719392,97.8205128 C121.563205,87.4622178 119.238156,80.0411222 116.744246,75.557226 C114.250336,71.0733298 110.924177,68.3339019 106.765768,67.3389423 Z" id="Path-173" fill="#E49C74"></path>
                <path d="M98.6818158,79.5616272 C100.08873,78.5069267 101.499025,78.5114296 102.912702,79.575136" id="Path-9" stroke="#2F353E" stroke-width="2" stroke-linecap="round" stroke-linejoin="round" transform="translate(100.797259, 79.174550) scale(-1, 1) rotate(-46.000000) translate(-100.797259, -79.174550) "></path>
                <ellipse id="Oval-Copy-2" fill="#2F353E" transform="translate(96.021829, 81.627602) scale(-1, 1) rotate(-39.000000) translate(-96.021829, -81.627602) " cx="96.0218292" cy="81.6276023" rx="1.20244957" ry="1.60112814"></ellipse>
                <path d="M42.6877854,137.784644 C29.6357496,118.576426 21.4621385,104.885154 18.1669521,96.7108302 C14.8717656,88.536506 10.2533771,67.2076728 4.31178653,32.7243304 C6.28409156,31.5754266 8.57732786,30.8522743 11.1914954,30.5548735 C13.805663,30.2574727 17.8689704,30.2574727 23.3814176,30.5548735 C36.2523295,56.2337979 43.5799982,73.8244381 45.3644237,83.3267943 C57.1755137,92.3555403 72.2328682,105.233947 90.0231897,113.094607 C107.813511,120.955267 119.309937,127.515549 126.587782,137.784644 C133.865628,148.05374 127.481807,163.518797 125.013003,173.740948 C123.110872,181.616773 118.864718,187.148795 116.744246,195.53809 C115.995809,198.499157 98.5940074,205.746608 83.776113,209.921854 C65.8325725,214.977814 45.4895524,218.148916 45.3644237,217.063445 C42.2639143,190.16702 40.6221461,177.283188 40.6221461,168.453411 C40.6221461,158.973013 41.3106925,148.750091 42.6877854,137.784644 Z" id="Path-171" fill="#EDB622"></path>
                <path d="M119.417264,173.207102 C130.535853,190.259205 139.886872,197.063416 147.47032,193.619734 C155.053768,190.176053 163.117359,174.64867 171.661093,147.037584 L159.045896,139.147599 L142.554101,162.723674 C138.466011,154.856609 133.143905,146.543599 126.587782,137.784644 C120.03166,129.025689 117.641487,140.833175 119.417264,173.207102 Z" id="Path-172" fill="#EDB622"></path>
                <line x1="107.279823" y1="107.628298" x2="114.879209" y2="113.036344" id="Path-191" stroke="#2C1A29" stroke-linecap="round" stroke-linejoin="round"></line>
                <line x1="107.279823" y1="110.332321" x2="114.075557" y2="115.087268" id="Path-192" stroke="#2C1A29" stroke-linecap="round" stroke-linejoin="round"></line>
                <path d="M159.01924,140.07661 C157.395722,134.507623 157.041397,130.936299 157.956264,129.362637 C158.795205,127.919576 160.305304,127.647708 161.829338,126.881253 C163.988882,125.795192 165.787168,121.9242 168.706071,121.651786 C173.931364,121.164121 177.828285,129.07176 174.961687,136.154082 C172.761291,141.590461 170.676085,144.757567 168.706071,145.655399 L159.01924,140.07661 Z" id="Path-182" fill="#E49C74"></path>
                <line x1="42.6877854" y1="137.784644" x2="52.6392694" y2="149.725275" id="Path-193" stroke="#000000"></line>
                <path d="M125.628853,163.474142 C123.072174,176.933383 120.110639,187.271216 116.744246,194.48764" id="Path-194" stroke="#000000"></path>
            </g>
            <g id="Group-3" transform="translate(17.000000, 144.000000)">
                <path d="M21.7021601,179.375925 C22.5988185,171.270476 23.437874,168.465996 26.882501,162.187944 C29.3657496,157.662064 33.8163423,153.496982 40.2342791,149.692698 L88.7812216,140.539841 L96.7492542,201 C88.4515294,199.988555 75.9433179,197.82338 59.2246199,194.504474 C34.146573,189.526116 21.4607282,181.558376 21.7021601,179.375925 Z" id="Path-179" fill="#292C50"></path>
                <path d="M80.5493973,12.7185146 C81.7244612,18.6249457 82.4349306,22.5959225 82.6808055,24.6314449 C83.1728707,28.7051008 85.1937159,31.8484869 86.8650427,35.2084708 C87.4088322,36.3016885 84.6319608,36.6296435 84.6319608,38.1973823 C84.6319608,39.4941683 84.3026669,43.2304124 83.9681808,45.5183388 C83.9681808,51.916893 79.6489207,54.4122651 70.6239726,54.4122651 C67.7813523,54.4122651 67.1593104,59.1629505 68.757847,68.6643212 C58.9522982,75.4349732 53.148326,75.4349732 51.3459302,68.6643212 C49.5435344,61.8936692 50.7065205,44.4599275 54.8348885,16.363096 L80.5493973,12.7185146 Z" id="Path" fill="#FFD4BB"></path>
                <path d="M79.9657568,28.8588962 C80.6316515,28.8591037 81.1714142,29.3988658 81.1716224,30.0647605 L81.1718702,30.8570581 C81.1720782,31.5224156 80.6328681,32.0619631 79.9675106,32.0621711 C79.9672599,32.0621712 79.9670092,32.0621712 79.9667585,32.0621711 C79.3008638,32.0619636 78.7611012,31.5222016 78.7608929,30.8563069 L78.7606452,30.0640092 C78.7604371,29.3986518 79.2996473,28.8591043 79.9650047,28.8588962 C79.9652554,28.8588962 79.9655061,28.8588962 79.9657568,28.8588962 Z" id="Rectangle-Copy-3" fill="#2F353E" transform="translate(79.966258, 30.460534) rotate(-5.000000) translate(-79.966258, -30.460534) "></path>
                <path d="M76.8169505,26.9988861 C77.8358098,25.6558899 79.0413313,25.2978513 80.433515,25.9247705" id="Path-25" stroke="#2F353E" stroke-linecap="round" stroke-linejoin="round"></path>
                <path d="M16.8584643,155.399124 L90.2641646,143.923504 L89.9590544,122.991052 C98.6330668,130.063075 106.251408,130.956095 112.814077,125.670111 C119.376747,120.384126 123.563465,103.07486 125.374233,73.7423102 L112.814077,70.8705179 L103.919718,95.6952191 C102.164539,74.1986778 95.0015229,63.1324583 82.4306701,62.4965606 C63.5743908,61.5427142 39.6534064,66.0440681 24.2352198,80.0233752 C8.81703312,94.0026824 -5.39659222,122.991052 3.61185535,130.785763 C9.61748706,135.982238 15.5352777,135.982238 21.3652272,130.785763 L16.8584643,155.399124 Z" id="Path-178" fill="#3D46AD"></path>
                <path d="M59.224016,59.0649765 C65.9093839,57.3388586 71.4533213,58.44188 75.8558282,62.3740408 C71.0720285,62.8415809 64.6261648,63.5382818 56.5182372,64.4641434 L59.224016,59.0649765 Z" id="Path-342" fill="#FFFFFF"></path>
                <path d="M66.9524464,1.46604351 C54.9015565,1.36681728 46.4637914,5.11764098 41.6391512,12.7185146 C34.4021909,24.1198251 43.7626834,35.6378344 28.1268283,44.5763533 C12.4909732,53.5148721 2.75889884,71.8584526 15.5479434,83.3148364 C28.3369879,94.7712202 55.167469,88.6514757 58.9209071,71.8584526 C62.6743453,55.0654294 59.8624594,55.0653516 66.9524464,47.5211128 C72.8342254,41.2624915 64.2231287,35.9164657 65.0714748,30.405645 C65.9018405,25.011624 71.0139265,25.011624 71.9934127,27.2419502 C78.0508442,20.9912173 87.6828049,14.7621595 83.1105153,6.32494825 C80.0623222,0.700140726 74.6762993,-0.919494188 66.9524464,1.46604351 Z" id="Path-177" fill="#961801"></path>
                <path d="M112.814077,70.8705179 C111.321112,63.2088411 111.321112,56.8207139 112.814077,51.7061364 C114.307043,46.5915589 117.252137,42.6626495 121.64936,39.9194083 L121.64936,48.8486056 L127.383436,39.9194083 L127.785276,55.3949631 L130.893261,51.7061364 L125.374233,73.7423102 L112.814077,70.8705179 Z" id="Path-4" fill="#FFD4BB"></path>
                <path d="M77.8215518,41.8877731 C79.609585,43.1593509 81.5020631,43.6068973 83.498986,43.2304124" id="Path-5" stroke="#2F353E" stroke-linecap="round" stroke-linejoin="round"></path>
            </g>
            <line x1="37" y1="274" x2="42" y2="241" id="Path-195" stroke="#000000"></line>
            <line x1="91.5571696" y1="249.019922" x2="105.251991" y2="265.242887" id="Path-196" stroke="#000000"></line>
            <polygon id="Path-341" fill="#000000" points="203 282.388758 189 266 198.007509 306"></polygon>
            <path d="M364.719841,188.76128 C365.882412,184.967509 369.336912,182.37595 375.083343,180.986601 C383.702989,178.902578 387.166963,175.345457 390.353751,174.986611 C393.54054,174.627764 395.650469,178.670653 395.651202,180.993091 C399.268713,180.994232 400.013976,185.551574 399.642572,187.161877 C399.394969,188.235413 398.065543,189.445028 395.654294,190.790723 C393.42714,187.80323 391.661353,185.896071 390.356933,185.069247 C389.052514,184.242422 387.256226,184.152771 384.968069,184.800293 C384.283942,191.072217 383.217022,194.794027 381.767309,195.965723 C380.317597,197.137418 378.879899,198.193229 377.454218,199.133153 C375.021024,195.874582 372.534261,195.793845 369.99393,198.890943 C367.453598,201.98804 368.122167,205.290864 371.999636,208.799416 L363.253185,211.514792 C361.654164,202.463847 360.854359,197.004139 360.853769,195.13567 C360.85318,193.2672 362.14187,191.142403 364.719841,188.76128 Z" id="Path-349" fill="#2C1A29" transform="translate(380.291089, 193.239514) scale(-1, 1) rotate(-31.000000) translate(-380.291089, -193.239514) "></path>
        </g>
    </g>
</svg>